<svg width="346" height="85" viewBox="0 0 346 85" fill="none" xmlns="http://www.w3.org/2000/svg">
<path d="M53.2586 19C47.0169 19 41.2098 22.6719 38.8453 27.9412C38.7963 28.0505 38.6882 28.122 38.5684 28.122H37.1943C37.0698 28.122 36.9585 28.0447 36.9124 27.9291C34.8164 22.6663 29.6273 19 23.9174 19C18.4747 19 14.5054 21.7026 12.1807 25.3862C12.1251 25.4743 12.0286 25.5285 11.9245 25.5285H10.5249C10.3592 25.5285 10.2249 25.3941 10.2249 25.2285V20.1943C10.2249 20.0286 10.0906 19.8943 9.92493 19.8943H0.3C0.134314 19.8943 0 20.0286 0 20.1943V63.326C0 63.4917 0.134315 63.626 0.3 63.626H9.92493C10.0906 63.626 10.2249 63.4917 10.2249 63.326V41.5366C10.2249 33.1301 14.1371 28.4797 20.0053 28.4797C25.2511 28.4797 28.9855 32.3252 28.9855 39.122V63.326C28.9855 63.4917 29.1198 63.626 29.2855 63.626H38.9104C39.0761 63.626 39.2104 63.4917 39.2104 63.326V41.5366C39.2104 33.1301 43.3893 28.4797 49.2575 28.4797C54.3255 28.4797 57.7042 32.3252 57.7042 39.3008V63.326C57.7042 63.4917 57.8385 63.626 58.0042 63.626H67.6291C67.7948 63.626 67.9291 63.4917 67.9291 63.326V36.9756C67.9291 26.1545 62.1498 19 53.2586 19Z" fill="#222222"/>
<path d="M188.822 19.3577C184.685 19.3577 180.112 21.8119 177.174 26.5466C177.119 26.6357 177.022 26.6911 176.917 26.6911H175.519C175.353 26.6911 175.219 26.5567 175.219 26.3911V20.1943C175.219 20.0286 175.084 19.8943 174.919 19.8943H165.294C165.128 19.8943 164.994 20.0286 164.994 20.1943V63.326C164.994 63.4917 165.128 63.626 165.294 63.626H174.919C175.084 63.626 175.219 63.4917 175.219 63.326V42.878C175.219 33.3984 180.82 29.1057 186.866 29.1057C187.707 29.1057 189.897 29.1057 191.862 29.4078C192.042 29.4354 192.207 29.3016 192.214 29.1199L192.549 20.1914C192.553 20.0665 192.48 19.9511 192.364 19.9065C191.34 19.5159 190.16 19.3577 188.822 19.3577Z" fill="#222222"/>
<path d="M238.945 27.1382C239.111 27.1382 239.245 27.0039 239.245 26.8382V19.3C239.245 19.1343 239.111 19 238.945 19H214.35C202.436 19 194.433 25.1707 194.433 34.6504C194.433 39.2791 196.23 43.0863 199.433 45.8356C199.613 45.9904 199.56 46.288 199.339 46.3732C196.456 47.4818 194.789 49.4106 194.789 52.5366C194.789 56.1191 197.081 58.0796 200.172 59.0018C200.301 59.0403 200.391 59.1581 200.391 59.2927V60.7092C200.391 60.8467 200.297 60.9662 200.164 61.0017C195.973 62.1184 191.855 64.9886 191.855 71.1382C191.855 79.9919 200.302 85 213.994 85C228.398 85 238.001 79.4553 238.001 68.6341C238.001 61.122 233.11 55.6667 221.018 55.6667H208.126C206.081 55.6667 203.058 55.5772 203.058 53.0732C203.058 50.9268 205.103 50.5691 207.681 50.5691H214.617C226.175 50.5691 234.177 44.935 234.177 35.9919C234.177 32.9949 233.314 31.1274 231.331 29.1048C231.275 29.0482 231.243 28.9718 231.243 28.8925V27.4382C231.243 27.2725 231.378 27.1382 231.543 27.1382H238.945ZM214.35 42.4309C208.571 42.4309 204.658 39.5691 204.658 34.8293C204.658 30.2683 208.571 27.1382 214.35 27.1382C220.129 27.1382 223.952 30.2683 223.952 34.8293C223.952 39.5691 220.129 42.4309 214.35 42.4309ZM209.993 63.3577H219.24C224.753 63.3577 227.776 65.5041 227.776 69.2602C227.776 73.8211 222.885 76.3252 214.617 76.3252C206.348 76.3252 202.08 73.8211 202.08 69.2602C202.08 65.5041 204.836 63.3577 209.993 63.3577Z" fill="#222222"/>
<path d="M243.648 63.326C243.648 63.4917 243.782 63.626 243.948 63.626H253.573C253.738 63.626 253.873 63.4917 253.873 63.326V20.1943C253.873 20.0286 253.738 19.8943 253.573 19.8943H243.948C243.782 19.8943 243.648 20.0286 243.648 20.1943V63.326Z" fill="#222222"/>
<path d="M288.469 19C283.017 19 278.434 21.5377 275.667 25.4878C275.61 25.5689 275.518 25.6179 275.419 25.6179H274.01C273.844 25.6179 273.71 25.4836 273.71 25.3179V20.1943C273.71 20.0286 273.576 19.8943 273.41 19.8943H263.785C263.619 19.8943 263.485 20.0286 263.485 20.1943V63.326C263.485 63.4917 263.619 63.626 263.785 63.626H273.41C273.576 63.626 273.71 63.4917 273.71 63.326V41.5366C273.71 33.6667 278.067 28.4797 284.557 28.4797C290.248 28.4797 293.893 32.5041 293.893 38.5854V63.326C293.893 63.4917 294.027 63.626 294.193 63.626H303.818C303.984 63.626 304.118 63.4917 304.118 63.326V36.9756C304.118 26.1545 297.45 19 288.469 19Z" fill="#222222"/>
<path d="M320.571 32.4146C320.571 29.2846 323.416 27.6748 327.062 27.6748C330.783 27.6748 333.914 29.7929 334.899 33.2868C334.944 33.4463 335.105 33.5456 335.266 33.5067L344.277 31.3247C344.442 31.2849 344.541 31.1163 344.493 30.9541C342.352 23.6147 335.656 19 326.795 19C317.37 19 310.346 24.187 310.346 32.8618C310.346 43.2358 320.571 44.935 327.151 46.0081C332.485 46.9919 335.242 47.7073 335.242 50.6585C335.242 53.8781 332.041 55.8455 327.862 55.8455C323.171 55.8455 319.838 53.1992 318.858 48.9074C318.82 48.7414 318.655 48.6347 318.489 48.6744L309.394 50.8566C309.232 50.8954 309.133 51.0588 309.175 51.2195C311.222 59.1097 317.94 64.5203 328.129 64.5203C338.442 64.5203 346 58.8862 346 50.3008C346 40.1057 335.242 38.8537 327.595 37.3333C323.327 36.439 320.571 35.4553 320.571 32.4146Z" fill="#222222"/>
<path d="M255 6.5C255 10.1299 252.111 13 248.458 13C244.889 13 242 10.1299 242 6.5C242 2.87013 244.889 0 248.458 0C252.111 0 255 2.87013 255 6.5Z" fill="#2B67F5"/>
<path d="M95.15 19C86.2063 19 79.3016 23.6407 77.3739 31.0881C77.3343 31.241 77.4229 31.398 77.5737 31.445L85.8734 34.0308C86.0409 34.083 86.2167 33.9807 86.2615 33.8111C87.2415 30.0977 90.5711 27.6444 94.8889 27.6444C100.199 27.6444 103.855 30.8428 103.855 35.2515V37.0471C103.855 37.2044 103.733 37.3349 103.576 37.3463L91.9293 38.1906C81.5709 38.9686 76 43.1179 76 50.5521C76 58.1591 81.5709 63 90.0143 63C94.8331 63 99.2265 61.4794 101.849 57.6867C101.906 57.6045 102 57.554 102.1 57.554H103.555C103.72 57.554 103.855 57.6883 103.855 57.854V61.8356C103.855 62.0012 103.989 62.1356 104.155 62.1356H113.565C113.731 62.1356 113.865 62.0012 113.865 61.8356V35.165C113.865 25.6562 106.205 19 95.15 19ZM92.4516 54.8743C88.6216 54.8743 85.488 53.1454 85.488 49.6876C85.488 46.2299 88.4475 44.7603 91.9293 44.501L103.533 43.6599C103.707 43.6473 103.855 43.7848 103.855 43.9591V45.4519C103.855 51.5894 98.3707 54.8743 92.4516 54.8743Z" fill="#2B67F5"/>
<path d="M138.285 19C129.341 19 122.437 23.6407 120.509 31.0881C120.469 31.241 120.558 31.398 120.709 31.445L129.009 34.0308C129.176 34.083 129.352 33.9807 129.397 33.8111C130.377 30.0977 133.706 27.6444 138.024 27.6444C143.334 27.6444 146.99 30.8428 146.99 35.2515V37.0471C146.99 37.2044 146.868 37.3349 146.711 37.3463L135.065 38.1906C124.706 38.9686 119.135 43.1179 119.135 50.5521C119.135 58.1591 124.706 63 133.15 63C137.968 63 142.362 61.4794 144.984 57.6867C145.041 57.6045 145.135 57.554 145.235 57.554H146.69C146.855 57.554 146.99 57.6883 146.99 57.854V61.8356C146.99 62.0012 147.124 62.1356 147.29 62.1356H156.7C156.866 62.1356 157 62.0012 157 61.8356V35.165C157 25.6562 149.34 19 138.285 19ZM135.587 54.8743C131.757 54.8743 128.623 53.1454 128.623 49.6876C128.623 46.2299 131.583 44.7603 135.065 44.501L146.668 43.6599C146.842 43.6473 146.99 43.7848 146.99 43.9591V45.4519C146.99 51.5894 141.506 54.8743 135.587 54.8743Z" fill="#2B67F5"/>
</svg>
