<svg width="128" height="27" viewBox="0 0 128 27" fill="none" xmlns="http://www.w3.org/2000/svg">
<path d="M22.732 0C24.676 0 26.188 0.6 27.268 1.8C28.348 3 28.888 4.68 28.888 6.84V18.864H23.776V8.1C23.776 6.924 23.548 6.06 23.092 5.508C22.636 4.932 21.904 4.644 20.896 4.644C19.744 4.644 18.844 4.98 18.196 5.652C17.548 6.3 17.224 7.236 17.224 8.46V18.864H12.112V8.1C12.112 6.924 11.872 6.06 11.392 5.508C10.936 4.932 10.204 4.644 9.196 4.644C8.068 4.644 7.18 4.98 6.532 5.652C5.884 6.324 5.56 7.26 5.56 8.46V18.864H0.447998V0.504H5.452V3.168C5.956 2.208 6.712 1.44 7.72 0.864002C8.728 0.288001 9.868 0 11.14 0C12.436 0 13.564 0.3 14.524 0.900001C15.484 1.476 16.18 2.316 16.612 3.42C17.092 2.364 17.884 1.536 18.988 0.936001C20.092 0.312 21.34 0 22.732 0Z" fill="#222222"/>
<path d="M92.8594 0.504V16.74C92.8594 19.836 91.9834 22.248 90.2314 23.976C88.4794 25.704 85.9834 26.568 82.7434 26.568C80.9674 26.568 79.3234 26.316 77.8114 25.812C76.2994 25.308 75.0514 24.6 74.0674 23.688L76.3714 19.98C77.2594 20.652 78.2194 21.168 79.2514 21.528C80.3074 21.888 81.3634 22.068 82.4194 22.068C84.1474 22.068 85.4914 21.6 86.4514 20.664C87.4114 19.728 87.8914 18.42 87.8914 16.74V15.336C87.3634 16.368 86.5594 17.172 85.4794 17.748C84.4234 18.324 83.1994 18.612 81.8074 18.612C80.2234 18.612 78.8074 18.228 77.5594 17.46C76.3114 16.668 75.3274 15.576 74.6074 14.184C73.8874 12.792 73.5274 11.196 73.5274 9.396C73.5274 7.596 73.8874 5.988 74.6074 4.572C75.3274 3.132 76.3114 2.016 77.5594 1.224C78.8314 0.408 80.2594 0 81.8434 0C83.1634 0 84.3634 0.288001 85.4434 0.864002C86.5234 1.416 87.3274 2.196 87.8554 3.204V0.504H92.8594ZM83.3554 14.112C84.7474 14.112 85.8634 13.668 86.7034 12.78C87.5434 11.892 87.9634 10.74 87.9634 9.324C87.9634 7.908 87.5434 6.756 86.7034 5.868C85.8634 4.98 84.7474 4.536 83.3554 4.536C81.9634 4.536 80.8474 4.98 80.0074 5.868C79.1674 6.756 78.7474 7.908 78.7474 9.324C78.7474 10.74 79.1674 11.892 80.0074 12.78C80.8474 13.668 81.9634 14.112 83.3554 14.112Z" fill="#222222"/>
<path d="M106.271 0.144C106.871 0.144 107.387 0.228001 107.819 0.396001V5.256C107.051 5.112 106.307 5.04 105.587 5.04C104.027 5.04 102.875 5.436 102.131 6.228C101.411 6.996 101.051 8.244 101.051 9.972V18.864H95.9394V0.504H100.943V3.528C101.399 2.472 102.095 1.644 103.031 1.044C103.967 0.444 105.047 0.144 106.271 0.144Z" fill="#222222"/>
<path d="M117.372 19.368C115.428 19.368 113.712 18.936 112.224 18.072C110.736 17.208 109.584 16.044 108.768 14.58C107.976 13.116 107.58 11.484 107.58 9.684C107.58 7.884 107.976 6.252 108.768 4.788C109.584 3.3 110.736 2.136 112.224 1.296C113.712 0.432 115.428 0 117.372 0C119.316 0 121.032 0.432 122.52 1.296C124.032 2.136 125.184 3.3 125.976 4.788C126.792 6.252 127.2 7.884 127.2 9.684C127.2 11.484 126.792 13.128 125.976 14.616C125.184 16.08 124.032 17.244 122.52 18.108C121.032 18.948 119.316 19.368 117.372 19.368ZM117.372 14.76C118.788 14.76 119.904 14.304 120.72 13.392C121.56 12.456 121.98 11.22 121.98 9.684C121.98 8.148 121.56 6.924 120.72 6.012C119.904 5.076 118.788 4.608 117.372 4.608C115.956 4.608 114.828 5.076 113.988 6.012C113.172 6.924 112.764 8.148 112.764 9.684C112.764 11.22 113.172 12.456 113.988 13.392C114.828 14.304 115.956 14.76 117.372 14.76Z" fill="#222222"/>
<path d="M50.332 1.504V19.864H45.292V17.128C44.764 18.136 43.96 18.928 42.88 19.504C41.8 20.08 40.6 20.368 39.28 20.368C37.696 20.368 36.268 19.96 34.996 19.144C33.748 18.328 32.764 17.188 32.044 15.724C31.348 14.236 31 12.556 31 10.684C31 8.812 31.348 7.144 32.044 5.68C32.764 4.192 33.748 3.04 34.996 2.224C36.268 1.408 37.696 1 39.28 1C40.6 1 41.8 1.288 42.88 1.864C43.96 2.44 44.764 3.232 45.292 4.24V1.504H50.332ZM40.792 15.76C42.208 15.76 43.324 15.304 44.14 14.392C44.98 13.456 45.4 12.22 45.4 10.684C45.4 9.148 44.98 7.924 44.14 7.012C43.324 6.076 42.208 5.608 40.792 5.608C39.376 5.608 38.248 6.076 37.408 7.012C36.592 7.924 36.184 9.148 36.184 10.684C36.184 12.22 36.592 13.456 37.408 14.392C38.248 15.304 39.376 15.76 40.792 15.76Z" fill="url(#paint0_linear)"/>
<path d="M71.7 1.504V19.864H66.66V17.128C66.132 18.136 65.328 18.928 64.248 19.504C63.168 20.08 61.968 20.368 60.648 20.368C59.064 20.368 57.636 19.96 56.364 19.144C55.116 18.328 54.132 17.188 53.412 15.724C52.716 14.236 52.368 12.556 52.368 10.684C52.368 8.812 52.716 7.144 53.412 5.68C54.132 4.192 55.116 3.04 56.364 2.224C57.636 1.408 59.064 1 60.648 1C61.968 1 63.168 1.288 64.248 1.864C65.328 2.44 66.132 3.232 66.66 4.24V1.504H71.7ZM62.16 15.76C63.576 15.76 64.692 15.304 65.508 14.392C66.348 13.456 66.768 12.22 66.768 10.684C66.768 9.148 66.348 7.924 65.508 7.012C64.692 6.076 63.576 5.608 62.16 5.608C60.744 5.608 59.616 6.076 58.776 7.012C57.96 7.924 57.552 9.148 57.552 10.684C57.552 12.22 57.96 13.456 58.776 14.392C59.616 15.304 60.744 15.76 62.16 15.76Z" fill="url(#paint1_linear)"/>
<defs>
<linearGradient id="paint0_linear" x1="31" y1="10.684" x2="71.7" y2="10.684" gradientUnits="userSpaceOnUse">
<stop stop-color="#00C9FF"/>
<stop offset="1" stop-color="#92FE9D"/>
</linearGradient>
<linearGradient id="paint1_linear" x1="31" y1="10.684" x2="71.7" y2="10.684" gradientUnits="userSpaceOnUse">
<stop stop-color="#00C9FF"/>
<stop offset="1" stop-color="#92FE9D"/>
</linearGradient>
</defs>
</svg>
