<svg width="1440" height="900" viewBox="0 0 1440 900" fill="none" xmlns="http://www.w3.org/2000/svg">
<g clip-path="url(#clip0)">
<rect width="1440" height="900" fill="white"/>
<path fill-rule="evenodd" clip-rule="evenodd" d="M341.78 -252.92C448.476 -268.749 559.11 -221.872 640.621 -151.264C718.522 -83.7839 763.31 17.385 772.313 120.023C780.253 210.556 717.414 286.316 686.497 371.782C656.982 453.375 665.661 557.774 595.485 608.845C525.301 659.923 428.593 621.705 341.78 622.654C253.662 623.617 159.864 659.267 84.0107 614.435C6.04898 568.357 -21.9235 472.999 -54.4044 388.496C-88.7513 299.137 -139.17 204.295 -108.492 113.613C-77.8977 23.1782 27.061 -10.9386 101.121 -71.225C181.028 -136.271 239.84 -237.796 341.78 -252.92Z" fill="#B0B0B0" fill-opacity="0.09"/>
<path fill-rule="evenodd" clip-rule="evenodd" d="M155.92 541.6C211.364 533.376 268.854 557.733 311.211 594.421C351.691 629.483 374.965 682.05 379.643 735.38C383.769 782.421 351.115 821.786 335.05 866.194C319.712 908.589 324.222 962.835 287.756 989.371C251.286 1015.91 201.032 996.053 155.92 996.546C110.131 997.046 61.3893 1015.57 21.973 992.275C-18.5391 968.333 -33.0747 918.786 -49.9531 874.878C-67.8012 828.448 -94.0008 779.168 -78.0592 732.05C-62.1612 685.06 -7.62039 667.333 30.864 636.009C72.387 602.211 102.948 549.459 155.92 541.6Z" fill="#71C5CE" fill-opacity="0.06"/>
<path fill-rule="evenodd" clip-rule="evenodd" d="M1401.17 292.842C1499.61 278.236 1601.67 321.491 1676.87 386.644C1748.74 448.909 1790.06 542.261 1798.37 636.968C1805.69 720.506 1747.72 790.413 1719.2 869.275C1691.97 944.563 1699.97 1040.9 1635.23 1088.02C1570.48 1135.15 1481.26 1099.89 1401.17 1100.76C1319.88 1101.65 1233.35 1134.55 1163.37 1093.18C1091.44 1050.66 1065.64 962.671 1035.67 884.697C1003.98 802.243 957.469 714.729 985.772 631.054C1014 547.607 1110.83 516.126 1179.15 460.498C1252.87 400.478 1307.13 306.797 1401.17 292.842Z" fill="#00D9F5" fill-opacity="0.09"/>
</g>
<defs>
<clipPath id="clip0">
<rect width="1440" height="900" fill="white"/>
</clipPath>
</defs>
</svg>
