<svg width="1440" height="900" viewBox="0 0 1440 900" fill="none" xmlns="http://www.w3.org/2000/svg">
<g clip-path="url(#clip0)">
<rect width="1440" height="900" fill="white"/>
<path fill-rule="evenodd" clip-rule="evenodd" d="M1466.17 282.842C1564.61 268.236 1666.67 311.491 1741.87 376.644C1813.74 438.909 1855.06 532.261 1863.37 626.968C1870.69 710.506 1812.72 780.413 1784.2 859.275C1756.97 934.563 1764.97 1030.9 1700.23 1078.02C1635.48 1125.15 1546.26 1089.89 1466.17 1090.76C1384.88 1091.65 1298.35 1124.55 1228.37 1083.18C1156.44 1040.66 1130.64 952.671 1100.67 874.697C1068.98 792.243 1022.47 704.729 1050.77 621.054C1079 537.607 1175.83 506.126 1244.15 450.498C1317.87 390.478 1372.13 296.797 1466.17 282.842Z" fill="#A8A8A8" fill-opacity="0.09"/>
<circle cx="1345.1" cy="831.872" r="271.049" stroke="#222222" stroke-width="2"/>
<circle cx="1345.1" cy="821.819" r="271.049" stroke="#2B67F5" stroke-width="2"/>
<circle cx="1335.05" cy="831.872" r="271.049" stroke="#00F5A0" stroke-width="2"/>
<circle cx="1363.95" cy="818.049" r="271.049" stroke="#FFBD00" stroke-width="2"/>
<circle cx="1363.95" cy="846.951" r="271.049" stroke="#FF3A44" stroke-width="2"/>
<rect y="893" width="1453" height="33" fill="#2B67F5"/>
<circle cx="285" cy="128" r="474" fill="#F4F8FF"/>
<g opacity="0.1">
<circle cx="232.218" cy="122.317" r="511.288" stroke="#222222" stroke-width="2"/>
<circle cx="232.218" cy="103.387" r="511.288" stroke="#2B67F5" stroke-width="2"/>
<circle cx="213.288" cy="122.317" r="511.288" stroke="#00F5A0" stroke-width="2"/>
<circle cx="267.712" cy="96.2884" r="511.288" stroke="#FFBD00" stroke-width="2"/>
<circle cx="267.712" cy="150.712" r="511.288" stroke="#FF3A44" stroke-width="2"/>
</g>
<path fill-rule="evenodd" clip-rule="evenodd" d="M110.92 451.6C166.364 443.376 223.854 467.733 266.211 504.421C306.691 539.483 329.965 592.05 334.643 645.38C338.769 692.421 306.115 731.786 290.05 776.194C274.712 818.589 279.222 872.835 242.756 899.371C206.286 925.911 156.032 906.053 110.92 906.546C65.1306 907.046 16.3893 925.57 -23.027 902.275C-63.5391 878.333 -78.0747 828.786 -94.9531 784.878C-112.801 738.448 -139.001 689.168 -123.059 642.05C-107.161 595.06 -52.6204 577.333 -14.136 546.009C27.387 512.211 57.9482 459.459 110.92 451.6Z" fill="#71C5CE" fill-opacity="0.06"/>
</g>
<defs>
<clipPath id="clip0">
<rect width="1440" height="900" fill="white"/>
</clipPath>
</defs>
</svg>
